<?xml version="1.0" encoding="UTF-8"?>
<svg version="1.1" xmlns="http://www.w3.org/2000/svg" width="500" height="500">
<path d="M0 0 C165 0 330 0 500 0 C500 165 500 330 500 500 C335 500 170 500 0 500 C0 335 0 170 0 0 Z " fill="#FEFEFE" transform="translate(0,0)"/>
<path d="M0 0 C8.8714445 -0.30841423 16.30771522 0.84189432 24.5078125 4.2421875 C25.43464844 4.62375 26.36148437 5.0053125 27.31640625 5.3984375 C44.05295823 13.755107 59.57508337 31.58129627 65.91894531 49.08911133 C66.95501419 52.87729184 66.95231922 56.58710112 66.8828125 60.4921875 C66.8664978 61.74225586 66.8664978 61.74225586 66.84985352 63.01757812 C66.1778509 89.20792897 46.18731879 104.71593747 28.94384766 122.03076172 C27.53972346 123.44322124 26.13560262 124.85568413 24.73171498 126.26837878 C18.09195078 132.94970743 11.44514776 139.62401424 4.796875 146.296875 C4.27159554 146.82412936 3.74631609 147.35138371 3.20511907 147.89461547 C-7.24406482 158.38296896 -17.69602596 168.8685516 -28.15366173 179.34847832 C-30.44427802 181.64406283 -32.7348561 183.93968546 -35.02539062 186.23535156 C-35.87921121 187.09107815 -35.87921121 187.09107815 -36.75028069 187.96409215 C-45.98432481 197.21952749 -55.20445282 206.48870206 -64.41917007 215.76337515 C-73.89966954 225.30504646 -83.3933928 234.83340258 -92.89988673 244.34917653 C-98.22941575 249.6846056 -103.55291838 255.02575963 -108.86143112 260.38210678 C-113.37791062 264.93925078 -117.90615247 269.48428146 -122.45006083 274.01408367 C-124.76527414 276.32284715 -127.07253612 278.63866093 -129.36859703 280.96649361 C-131.86410054 283.49469054 -134.38040378 286.00023338 -136.90292358 288.50143433 C-137.61569627 289.23391478 -138.32846896 289.96639524 -139.06284082 290.72107208 C-144.35407512 295.90048004 -149.48137298 298.08375809 -156.4921875 300.2421875 C-157.36218962 300.59137422 -158.23219174 300.94056095 -159.12855756 301.30032909 C-162.04245164 302.46145656 -164.91442147 303.01716431 -167.9921875 303.6171875 C-173.77717496 304.81739237 -179.33127503 306.34967952 -184.95703125 308.140625 C-195.45774639 311.41267105 -206.10416478 314.18020357 -216.78637695 316.78857422 C-222.14461897 318.11417221 -227.39451763 319.71021075 -232.66015625 321.359375 C-244.95316038 325.19140111 -244.95316038 325.19140111 -251.4921875 324.2421875 C-255.47480152 321.45435769 -257.26797961 318.4977517 -258.1171875 313.7421875 C-257.41408538 304.94483657 -254.16373561 296.02428453 -251.2734375 287.74609375 C-249.97658227 283.58967274 -249.00320974 279.34851946 -247.97705078 275.11889648 C-246.9061472 270.75349846 -245.634957 266.54253443 -244.140625 262.30859375 C-243.16183728 259.18944493 -242.62339543 256.00664992 -242.0234375 252.796875 C-240.95497721 247.65883804 -239.48331771 242.57425858 -237.4296875 237.7421875 C-236.5323676 235.34933443 -236.074324 233.18797562 -235.6171875 230.6796875 C-233.45930273 219.67959961 -230.49393344 212.03921072 -222.39871216 204.14630127 C-221.57621125 203.31273157 -220.75371034 202.47916187 -219.90628517 201.62033248 C-217.64194773 199.33363484 -215.36078419 197.06553158 -213.07092476 194.80444551 C-210.5967711 192.35264885 -208.14592286 189.87773253 -205.69194031 187.40577698 C-200.88911319 182.5751698 -196.06517636 177.76619885 -191.23338921 172.96457705 C-185.59703132 167.36206155 -179.98093833 161.73941009 -174.36522005 156.11621973 C-164.33645271 146.07570988 -154.28780678 136.05532995 -144.22851562 126.04541016 C-134.48842244 116.35311574 -124.76528522 106.64420139 -115.05957031 96.91748047 C-104.47163569 86.30667128 -93.87420731 75.70551105 -83.26043499 65.12054133 C-82.12617204 63.98932978 -80.99191442 62.85811288 -79.8576622 61.72689056 C-79.29969774 61.17044173 -78.74173327 60.61399289 -78.1668608 60.04068197 C-74.25435862 56.13762517 -70.34843107 52.22806352 -66.44491959 48.31601715 C-61.6786946 43.53988679 -56.90155048 38.77499181 -52.11068638 34.02357253 C-49.67109776 31.60358363 -47.23629059 29.17929235 -44.81443977 26.74154091 C-19.54335305 1.35535558 -19.54335305 1.35535558 0 0 Z " fill="#040404" transform="translate(405.4921875,29.7578125)"/>
<path d="M0 0 C1.08290817 -0.01022186 2.16581635 -0.02044373 3.28153992 -0.03097534 C6.81902884 -0.05851176 10.35572803 -0.05687571 13.89331055 -0.05224609 C16.37046086 -0.06002978 18.84760854 -0.06870113 21.32475281 -0.07821655 C26.49653821 -0.09308264 31.66805033 -0.09259795 36.83984375 -0.08203125 C43.46212628 -0.07040301 50.08329711 -0.10442372 56.7053957 -0.1507206 C61.81241878 -0.18018669 66.91917307 -0.18194076 72.0262661 -0.17570114 C74.46828616 -0.17672649 76.91032148 -0.18718189 79.35225868 -0.20732498 C82.76292128 -0.23202593 86.1714031 -0.21849567 89.58203125 -0.1953125 C90.58529449 -0.21059998 91.58855774 -0.22588745 92.6222229 -0.24163818 C98.55655592 -0.15256836 101.85834379 0.80340438 106.20910931 4.91509438 C108.38619401 7.74232201 108.5945644 10.055851 108.4675293 13.54931641 C107.00513901 16.76657505 105.18581068 19.28408192 102.4675293 21.54931641 C99.67589375 22.47986159 97.98953476 22.6778294 95.10519409 22.68734741 C94.21376205 22.69280075 93.32233002 22.69825409 92.40388489 22.70387268 C91.4282811 22.70491501 90.45267731 22.70595734 89.44750977 22.70703125 C88.41789627 22.71211197 87.38828278 22.71719269 86.32746887 22.72242737 C84.08814218 22.73313777 81.84880474 22.74175531 79.60946274 22.7485466 C76.06137245 22.76033144 72.51340411 22.77978498 68.96536255 22.80166626 C58.87595703 22.86328494 48.7865629 22.91726757 38.69702148 22.95068359 C32.52725992 22.97166851 26.35771892 23.00700673 20.18808365 23.05144119 C17.8398715 23.06557524 15.4916203 23.07431775 13.14336777 23.07749557 C9.8499838 23.08242274 6.55718119 23.10562943 3.26391602 23.1328125 C2.30045761 23.12980637 1.33699921 23.12680023 0.34434509 23.123703 C-10.12480204 23.25155459 -17.97107606 26.22954528 -25.5324707 33.54931641 C-33.58522626 42.82375069 -33.83356698 53.22867611 -33.77970886 65.06268311 C-33.78212328 66.28797611 -33.78453769 67.51326912 -33.78702527 68.77569222 C-33.79166223 72.1506694 -33.78740596 75.52541641 -33.77926099 78.90037227 C-33.77264879 82.54997415 -33.77764003 86.19956323 -33.78114319 89.84916687 C-33.78617085 96.987319 -33.78056205 104.12542459 -33.77129289 111.26357093 C-33.76088423 119.57942477 -33.76097971 127.89526867 -33.76146547 136.21112779 C-33.76196549 151.0476627 -33.75281969 165.88417601 -33.73828125 180.72070312 C-33.72418485 195.11361077 -33.71711097 209.50649942 -33.71777344 223.89941406 C-33.71781339 224.78650609 -33.71785335 225.67359811 -33.71789452 226.58757171 C-33.71793487 227.47314039 -33.71797523 228.35870907 -33.7180168 229.27111316 C-33.7187067 245.66740304 -33.71281761 262.06368486 -33.70386359 278.45997213 C-33.70084854 284.25565093 -33.69978419 290.05132825 -33.69933128 295.84700775 C-33.698649 302.90741419 -33.69418208 309.96780702 -33.68499848 317.02820769 C-33.68038371 320.62994916 -33.67733382 324.23167326 -33.67859268 327.83341789 C-33.67989087 331.73692034 -33.67343795 335.64038785 -33.66618347 339.54388428 C-33.66773207 340.68297957 -33.66928068 341.82207487 -33.6708762 342.9956882 C-33.65560711 347.95516016 -33.59707586 352.67789466 -32.5324707 357.54931641 C-31.8724707 357.54931641 -31.2124707 357.54931641 -30.5324707 357.54931641 C-29.2355957 359.34228516 -29.2355957 359.34228516 -27.7824707 361.73681641 C-22.80051034 369.39583018 -16.39661391 373.47651398 -7.73955691 376.09073228 C-5.13425072 376.63205779 -2.73278697 376.67860412 -0.07065392 376.68353748 C1.60407177 376.69022425 1.60407177 376.69022425 3.3126303 376.6970461 C4.53926119 376.69686174 5.76589208 376.69667738 7.0296936 376.69648743 C8.9843418 376.70200246 8.9843418 376.70200246 10.97847784 376.70762891 C14.59863946 376.71764119 18.21878451 376.72136446 21.83895802 376.72401822 C25.74232642 376.72792356 29.64568172 376.73750174 33.54904175 376.74623108 C42.97723807 376.76598899 52.40543546 376.77606084 61.83364731 376.78495887 C66.27439733 376.78934287 70.71514616 376.79470939 75.15589523 376.79994774 C89.91939102 376.81695934 104.68288607 376.83145332 119.44639015 376.83869648 C123.27716701 376.84060635 127.10794387 376.84252669 130.9387207 376.84448242 C131.89083232 376.84496616 132.84294394 376.8454499 133.82390742 376.8459483 C149.24606674 376.85424788 164.66814848 376.87958388 180.09027393 376.9120631 C195.9264442 376.9451422 211.76257504 376.96314601 227.59878004 376.96634072 C236.48916712 376.96850503 245.37944107 376.97724207 254.26979446 377.0028019 C261.84153448 377.02452052 269.41313387 377.03255361 276.9849015 377.02283511 C280.84643623 377.01829376 284.70768088 377.02016677 288.56917572 377.03959656 C292.76080835 377.06050484 296.95179915 377.05023227 301.14346313 377.0370636 C302.3567097 377.04803284 303.56995626 377.05900209 304.81996787 377.07030374 C317.07169878 376.9774427 326.08014668 372.93669902 334.7175293 364.29931641 C340.37247436 355.41297417 341.61506895 346.71784261 341.609375 336.42236328 C341.61284943 335.4055397 341.61632385 334.38871613 341.61990356 333.34107971 C341.62724579 331.13669886 341.63259933 328.93231068 341.63619423 326.72792053 C341.64336915 323.23957336 341.659042 319.75136606 341.67753601 316.26306152 C341.72996876 306.34629182 341.7780134 296.42960079 341.79345703 286.51269531 C341.80352661 280.4443387 341.83282038 274.37633718 341.87477684 268.30812073 C341.88710105 265.99567853 341.89220552 263.68318624 341.88997841 261.37071228 C341.88763089 258.13884408 341.90974939 254.90799958 341.9375 251.67626953 C341.93089859 250.72027359 341.92429718 249.76427765 341.91749573 248.77931213 C341.97690502 244.57111411 342.07409384 242.19052302 344.31315613 238.54138184 C347.1859009 235.885066 348.83930891 234.6204357 352.7800293 234.17431641 C357.1173287 234.6153977 359.11484359 235.82038618 362.4675293 238.54931641 C364.56334003 241.69303251 364.71807678 242.40769389 364.72149658 245.98757935 C364.72713623 246.89583969 364.73277588 247.80410004 364.73858643 248.73988342 C364.73251373 250.23134132 364.73251373 250.23134132 364.72631836 251.75292969 C364.73157532 253.32661064 364.73157532 253.32661064 364.73693848 254.93208313 C364.74576273 258.41133179 364.73990156 261.89037806 364.7331543 265.36962891 C364.73450135 267.78758788 364.73644223 270.20554659 364.73895264 272.62350464 C364.74190534 277.69938731 364.73760375 282.7751997 364.72827148 287.85107422 C364.71691343 294.34412847 364.72341238 300.83701671 364.73541641 307.33006477 C364.74266222 312.32818845 364.74033395 317.32627315 364.73516083 322.32439804 C364.73382996 324.71729426 364.73545227 327.11019406 364.74011993 329.50308609 C364.74522573 332.85859713 364.73741632 336.21384442 364.72631836 339.56933594 C364.73036682 340.55149582 364.73441528 341.5336557 364.73858643 342.545578 C364.64164603 358.44856407 358.7576417 371.54418526 348.4675293 383.54931641 C334.07239842 395.69089644 319.3582883 400.02941411 300.69140625 399.93699646 C299.3530117 399.94118052 298.01462071 399.94666386 296.67623615 399.95331627 C293.03652352 399.96764881 289.39703967 399.96356488 285.75731516 399.95614946 C281.81722349 399.95138966 277.87717935 399.96395221 273.93710327 399.97416687 C266.23352204 399.99130445 258.53002256 399.99220553 250.82642722 399.98695397 C244.56206166 399.98290222 238.29772014 399.98436771 232.03335571 399.98970222 C230.6928023 399.99082486 230.6928023 399.99082486 229.325167 399.99197017 C227.50927344 399.99350174 225.69337989 399.99504009 223.87748635 399.99658514 C206.8748299 400.01029151 189.87221956 400.00488523 172.86956418 399.99339993 C157.33359759 399.98346573 141.79775007 399.99641476 126.26180184 400.02033412 C110.2840698 400.04474715 94.30639316 400.0543278 78.32864285 400.04768139 C69.36844353 400.04419456 60.40833579 400.04638599 51.44815063 400.06393242 C43.8221685 400.07868184 36.19634245 400.07925394 28.57036328 400.06186151 C24.6841033 400.05337233 20.79812185 400.05115064 16.91187668 400.06651306 C13.34638545 400.08043249 9.78140947 400.07550533 6.21594751 400.05627383 C4.33231301 400.05078042 2.44865179 400.06472444 0.56506824 400.07962793 C-14.81105783 399.94800341 -28.75513673 394.69216348 -39.7824707 383.92431641 C-52.19621936 371.19236785 -57.17552565 356.05580584 -57.0471344 338.43240356 C-57.05407993 337.19033075 -57.06102546 335.94825794 -57.06818146 334.66854656 C-57.08317491 331.26467883 -57.08057472 327.86169881 -57.07002842 324.45787358 C-57.06297853 320.76994378 -57.07907786 317.08209941 -57.09202576 313.39419556 C-57.11357542 306.18636485 -57.11356213 298.97869258 -57.10540021 291.7708403 C-57.09907877 285.90745184 -57.10025681 280.04410929 -57.10667229 274.18072128 C-57.10757394 273.34352789 -57.1084756 272.5063345 -57.10940458 271.64377161 C-57.11125594 269.94255678 -57.1131185 268.24134195 -57.11499213 266.54012714 C-57.13153932 250.61704546 -57.1228779 234.6940526 -57.10600656 218.77097629 C-57.09131452 204.23291306 -57.10593645 189.6950566 -57.13477672 175.15701999 C-57.16423465 160.19511282 -57.17512426 145.23330087 -57.16559452 130.271366 C-57.16457206 128.5760917 -57.16357745 126.88081739 -57.16261101 125.18554306 C-57.16213462 124.35163476 -57.16165823 123.51772646 -57.1611674 122.65854821 C-57.15901159 116.80987648 -57.16876283 110.96129577 -57.18338203 105.1126442 C-57.2009786 97.97385074 -57.20068386 90.8353206 -57.17803038 83.69653715 C-57.16695375 80.06096812 -57.16357388 76.42586174 -57.18233109 72.79031372 C-57.28761405 50.74329855 -56.05843042 32.70620344 -40.3449707 15.79931641 C-29.16657479 5.20825994 -15.2731547 -0.07619851 0 0 Z " fill="#040404" transform="translate(84.532470703125,72.45068359375)"/>
<path d="M0 0 C2.94692399 1.15434654 4.68052429 3.1053591 6.9136675 5.3323161 C7.39217656 5.80556821 7.87068563 6.27882031 8.36369497 6.76641339 C9.94038354 8.32991744 11.50586771 9.9041175 13.07089406 11.47928876 C14.16333055 12.56970441 15.25621206 13.65967439 16.34951955 14.74921674 C18.63737171 17.03264792 20.91971399 19.32141299 23.19833547 21.61405438 C26.12273509 24.55556588 29.0604228 27.48337813 32.00234777 30.40734929 C34.2605098 32.65468476 36.5114948 34.90909932 38.76035482 37.16573972 C39.84105494 38.24844391 40.9239958 39.32891621 42.00917989 40.40712613 C43.52247264 41.91282082 45.02584835 43.42776052 46.52694875 44.94559735 C47.38536367 45.80639905 48.24377858 46.66720074 49.12820607 47.55408734 C50.96151906 49.76835126 50.96151906 49.76835126 50.96151906 52.76835126 C47.62299164 56.49964661 43.80016261 59.56948164 39.96151906 62.76835126 C38.27440483 64.41431636 36.60695686 66.08072274 34.96151906 67.76835126 C34.13651906 68.57272626 33.31151906 69.37710126 32.46151906 70.20585126 C29.87871839 72.77775833 29.87871839 72.77775833 27.46151906 75.83085126 C25.12113514 78.58080236 22.80243558 80.56664095 19.96151906 82.76835126 C18.27389055 84.41378906 16.60748417 86.08123703 14.96151906 87.76835126 C14.13651906 88.57272626 13.31151906 89.37710126 12.46151906 90.20585126 C9.88898888 92.77584876 9.88898888 92.77584876 7.46151906 95.76835126 C3.37318313 100.67435437 -1.14317513 104.68892975 -6.03848094 108.76835126 C-7.72559517 110.41431636 -9.39304314 112.08072274 -11.03848094 113.76835126 C-11.86348094 114.57272626 -12.68848094 115.37710126 -13.53848094 116.20585126 C-16.11101112 118.77584876 -16.11101112 118.77584876 -18.53848094 121.76835126 C-22.62681687 126.67435437 -27.14317513 130.68892975 -32.03848094 134.76835126 C-33.72559517 136.41431636 -35.39304314 138.08072274 -37.03848094 139.76835126 C-38.27598094 140.97491376 -38.27598094 140.97491376 -39.53848094 142.20585126 C-42.11101112 144.77584876 -42.11101112 144.77584876 -44.53848094 147.76835126 C-48.62681687 152.67435437 -53.14317513 156.68892975 -58.03848094 160.76835126 C-59.72559517 162.41431636 -61.39304314 164.08072274 -63.03848094 165.76835126 C-64.27598094 166.97491376 -64.27598094 166.97491376 -65.53848094 168.20585126 C-68.12128161 170.77775833 -68.12128161 170.77775833 -70.53848094 173.83085126 C-72.87886486 176.58080236 -75.19756442 178.56664095 -78.03848094 180.76835126 C-79.72610945 182.41378906 -81.39251583 184.08123703 -83.03848094 185.76835126 C-83.88410594 186.59335126 -84.72973094 187.41835126 -85.60098094 188.26835126 C-88.05863981 190.69750659 -88.05863981 190.69750659 -90.03848094 193.33085126 C-92.15726701 195.91312179 -94.41051016 197.71725211 -97.03848094 199.76835126 C-99.6195505 202.22351499 -101.91058812 204.59649529 -104.03848094 207.45585126 C-106.26243177 210.0272944 -107.89603394 210.63645012 -111.03848094 211.76835126 C-117.58958199 205.33295881 -124.12719676 198.88425675 -130.64786452 192.41802853 C-133.67591359 189.41610411 -136.70844993 186.4190189 -139.7516157 183.43241376 C-142.68675742 180.55148839 -145.60961407 177.65861703 -148.52425784 174.75696057 C-149.63992257 173.65055432 -150.75998806 172.54856796 -151.88441485 171.45106763 C-153.45544981 169.91618426 -155.01027769 168.36650558 -156.56216258 166.81229657 C-157.45262782 165.93293439 -158.34309306 165.0535722 -159.26054209 164.14756268 C-161.03848094 161.76835126 -161.03848094 161.76835126 -160.81081581 159.80480862 C-159.47226465 156.27537799 -156.58258804 153.89499492 -153.94685191 151.28231305 C-153.30361847 150.63298851 -152.66038504 149.98366397 -151.99765968 149.31466293 C-149.83374015 147.13405313 -147.65919864 144.96435645 -145.48452586 142.7944743 C-143.9336272 141.23623899 -142.3833541 139.67738085 -140.83366221 138.11794537 C-136.61769129 133.87971109 -132.39207785 129.65121664 -128.16401666 125.42504734 C-124.63977299 121.90092311 -121.11987599 118.37247303 -117.59986687 114.84412003 C-108.82468472 106.0485862 -100.03986145 97.26273695 -91.25090829 88.48096857 C-83.61228856 80.84792848 -75.98696602 73.20175874 -68.36770215 65.54940196 C-60.54838894 57.69639033 -52.71962921 49.85289387 -44.8813715 42.01878834 C-40.47912659 37.61861686 -36.08079056 33.21470346 -31.69179171 28.80131596 C-27.566887 24.65424984 -23.43023484 20.51928167 -19.28404635 16.39349812 C-17.76070459 14.87358485 -16.24165836 13.34935291 -14.72715968 11.82062787 C-12.66642022 9.74186573 -10.59104738 7.6789478 -8.51106089 5.61947125 C-7.60740638 4.69703996 -7.60740638 4.69703996 -6.68549621 3.7559737 C-2.55202275 -0.29000657 -2.55202275 -0.29000657 0 0 Z " fill="#FCFCFC" transform="translate(363.0384809374809,88.23164874315262)"/>
<path d="M0 0 C7.26514936 4.38709233 13.34255812 10.97368652 19.2265625 17.0234375 C20.57470164 18.38540371 22.0015166 19.66849142 23.4375 20.9375 C28.88696209 27.12337589 30.44977427 33.47792262 30.12890625 41.64453125 C28.75947831 52.19053816 21.2407788 60.4997657 13.75 67.5625 C13.09 68.2225 12.43 68.8825 11.75 69.5625 C7.67532194 69.35872327 5.55986552 66.7652377 2.78198242 64.0144043 C2.30186707 63.54275848 1.82175171 63.07111267 1.3270874 62.58517456 C-0.25467584 61.02677646 -1.82502529 59.45745441 -3.39453125 57.88671875 C-4.48950775 56.79884209 -5.58478275 55.71126581 -6.68034363 54.62397766 C-8.97270009 52.34506343 -11.25903484 50.06030022 -13.54174805 47.77172852 C-16.47184264 44.83572607 -19.41980401 41.91841467 -22.37296009 39.00563335 C-24.63861846 36.76578025 -26.89275181 34.51460279 -29.143713 32.25998878 C-30.22627386 31.17912467 -31.31283844 30.10225555 -32.40339088 29.02945518 C-33.92407684 27.53082604 -35.42813543 26.01726734 -36.92895508 24.4987793 C-37.78959061 23.64019821 -38.65022614 22.78161713 -39.53694153 21.89701843 C-41.25 19.5625 -41.25 19.5625 -41.14311218 17.40193176 C-37.44770817 9.79096905 -28.50458348 3.58293379 -21.25 -0.4375 C-14.89355102 -2.55631633 -6.19765561 -2.79976229 0 0 Z " fill="#FBFBFB" transform="translate(420.25,53.4375)"/>
<path d="M0 0 C0.66 0 1.32 0 2 0 C3.45643616 1.47891235 3.45643616 1.47891235 5.14477539 3.51806641 C8.79271565 7.80568116 12.67054504 11.76701893 16.68359375 15.7109375 C18.11926706 17.13398704 19.55481034 18.55716777 20.99023438 19.98046875 C23.22918599 22.19443593 25.4697262 24.40675244 27.71264648 26.61669922 C29.89477043 28.76880803 32.07078648 30.92694199 34.24609375 33.0859375 C34.92409531 33.75047943 35.60209686 34.41502136 36.30064392 35.09970093 C36.91871414 35.7143924 37.53678436 36.32908386 38.17358398 36.96240234 C38.72094711 37.50230804 39.26831024 38.04221375 39.83226013 38.59848022 C41 40 41 40 41 42 C21.06406567 47.80398555 21.06406567 47.80398555 11.625 50.0625 C4.95665274 51.67844918 -1.43473781 53.74713836 -7.890625 56.046875 C-11 57 -11 57 -15 57 C-13.70012028 48.95603844 -12.13816195 41.03096929 -8.9375 33.5 C-8.0514494 31.13719839 -7.59091652 29.01455272 -7.13671875 26.5390625 C-6.0309496 20.88496782 -4.49674128 15.39978369 -2.875 9.875 C-2.59785156 8.91851562 -2.32070312 7.96203125 -2.03515625 6.9765625 C-1.36043779 4.64994713 -0.6820117 2.32448578 0 0 Z " fill="#FAFAFA" transform="translate(190,270)"/>
</svg>
